<?xml version="1.0" standalone="no"?>
<!DOCTYPE svg PUBLIC "-//W3C//DTD SVG 20010904//EN"
 "http://www.w3.org/TR/2001/REC-SVG-20010904/DTD/svg10.dtd">
<svg version="1.0" xmlns="http://www.w3.org/2000/svg"
 width="855.000000pt" height="846.000000pt" viewBox="0 0 855.000000 846.000000"
 preserveAspectRatio="xMidYMid meet">
<g transform="translate(0.000000,846.000000) scale(0.100000,-0.100000)"
fill="#033be2" stroke="none">
<path d="M0 4230 l0 -4230 4275 0 4275 0 0 4230 0 4230 -4275 0 -4275 0 0
-4230z m2832 2543 c34 -37 56 -82 64 -132 5 -33 1 -50 -21 -93 -15 -29 -39
-64 -53 -78 -13 -14 -42 -48 -63 -77 -21 -29 -49 -63 -61 -77 -27 -29 -71 -84
-173 -216 -41 -52 -84 -106 -95 -119 -42 -50 -13 -84 32 -37 32 34 237 196
248 196 5 0 22 11 38 25 37 31 267 155 288 155 6 0 52 20 102 45 50 25 97 45
106 45 8 0 39 9 68 19 29 11 89 22 133 26 44 3 111 13 150 21 38 9 107 16 152
17 72 2 84 -1 106 -21 13 -13 32 -40 41 -61 17 -37 17 -38 -11 -96 -46 -96
-138 -142 -346 -171 -53 -8 -105 -18 -115 -23 -65 -36 -234 -98 -312 -115 -14
-3 -52 -32 -85 -63 -33 -32 -76 -70 -95 -86 -19 -15 -53 -43 -75 -62 -22 -18
-51 -42 -65 -53 -22 -18 -23 -21 -7 -27 9 -4 27 -1 40 8 12 8 38 18 57 22 19
4 51 15 70 24 34 17 167 57 261 79 35 9 106 8 278 -3 277 -16 276 -16 411
-145 52 -49 100 -90 106 -90 5 0 24 -10 41 -22 17 -13 41 -30 54 -38 65 -43
99 -83 99 -115 0 -66 -98 -158 -184 -172 -51 -8 -164 50 -273 141 -118 97
-119 97 -189 86 -33 -6 -122 -10 -200 -10 -134 0 -143 -1 -178 -25 -20 -14
-40 -25 -44 -25 -4 0 -28 -17 -54 -37 -26 -21 -63 -49 -83 -63 -20 -14 -51
-37 -68 -51 -18 -14 -57 -43 -87 -64 -118 -81 -102 -123 25 -65 50 23 151 39
325 50 192 12 225 7 310 -50 92 -61 134 -91 200 -142 41 -31 86 -65 99 -75 13
-10 40 -32 60 -49 20 -17 54 -44 76 -58 51 -35 92 -96 100 -149 11 -71 -1
-337 -18 -399 -14 -54 -14 -59 4 -92 31 -59 28 -76 -50 -251 -44 -98 -49 -111
-70 -165 -11 -30 -25 -75 -30 -100 -22 -98 -95 -206 -162 -240 -71 -36 -166
-68 -239 -79 -69 -11 -136 -28 -205 -52 -130 -46 -283 -102 -349 -128 -43 -16
-93 -33 -110 -36 -17 -3 -53 -17 -81 -30 -110 -54 -259 -70 -346 -40 -90 32
-232 46 -352 35 -131 -12 -148 -15 -247 -42 -68 -18 -160 -55 -200 -79 -8 -5
-26 -14 -40 -19 -14 -6 -33 -15 -43 -20 -80 -46 -149 -80 -165 -80 -23 0 -56
34 -77 80 -9 19 -29 56 -45 82 -16 26 -34 67 -41 90 -6 24 -15 48 -20 54 -13
15 -69 180 -69 201 0 10 -9 53 -19 98 -26 105 -51 327 -51 440 0 101 24 313
37 325 4 5 37 23 71 42 35 18 81 42 101 53 79 42 213 233 267 379 9 22 29 77
45 121 17 44 36 107 44 140 37 160 111 366 193 535 47 95 77 142 127 196 35
40 69 82 75 95 6 13 24 44 40 69 16 25 41 69 54 98 38 81 118 188 209 282 85
88 127 136 199 230 23 30 77 91 120 134 43 44 78 84 78 88 0 5 21 31 46 58 54
58 79 62 116 23z m4198 -1400 c12 -16 28 -41 36 -58 8 -16 26 -50 40 -75 14
-25 34 -67 44 -95 10 -27 32 -85 49 -127 16 -43 36 -108 42 -145 6 -38 16 -76
21 -86 14 -28 48 -333 47 -437 0 -52 -6 -144 -13 -204 -12 -105 -14 -109 -47
-137 -19 -15 -45 -31 -58 -34 -14 -3 -36 -15 -49 -26 -14 -10 -31 -19 -39 -19
-25 0 -105 -84 -157 -165 -58 -91 -96 -165 -125 -245 -11 -30 -31 -84 -44
-120 -13 -36 -29 -90 -35 -120 -25 -120 -87 -304 -147 -435 -13 -27 -37 -79
-53 -115 -32 -68 -83 -140 -143 -200 -19 -20 -42 -49 -51 -65 -30 -57 -43 -81
-65 -112 -13 -17 -23 -37 -23 -43 0 -37 -104 -184 -201 -285 -120 -125 -172
-183 -214 -239 -15 -22 -64 -76 -107 -120 -44 -45 -85 -93 -93 -107 -19 -35
-91 -99 -113 -99 -9 0 -27 8 -39 18 -27 21 -73 117 -73 153 0 38 40 107 117
202 37 46 106 130 152 186 203 250 249 321 206 321 -8 0 -27 -14 -42 -31 -16
-17 -46 -44 -68 -59 -22 -16 -53 -41 -70 -57 -26 -25 -57 -47 -180 -130 -48
-32 -224 -123 -239 -123 -6 0 -42 -16 -81 -34 -103 -51 -240 -94 -325 -101
-41 -4 -119 -16 -173 -26 -54 -10 -126 -19 -159 -19 -58 0 -63 2 -98 39 -53
55 -56 79 -21 149 24 47 38 63 80 86 60 32 195 71 299 86 46 6 101 23 145 45
72 34 163 68 225 84 41 11 60 24 154 108 43 37 104 90 138 116 33 27 60 55 60
64 0 8 -3 13 -8 11 -4 -1 -30 -11 -57 -21 -28 -10 -63 -25 -80 -32 -51 -24
-148 -53 -243 -74 -85 -18 -109 -19 -304 -11 -117 5 -229 12 -248 16 -44 9
-75 31 -177 124 -45 42 -94 82 -109 90 -63 33 -184 132 -190 156 -14 55 31
123 113 168 55 31 76 32 153 6 80 -27 134 -65 278 -197 28 -26 39 -28 79 -12
15 6 107 14 203 18 201 8 157 -10 399 163 135 96 258 204 247 216 -3 2 -21 -3
-40 -12 -19 -9 -39 -16 -46 -16 -6 0 -25 -8 -43 -17 -56 -29 -205 -53 -377
-59 -156 -6 -168 -6 -207 15 -52 26 -102 58 -173 111 -30 23 -86 64 -125 92
-38 28 -112 85 -164 127 -132 107 -141 126 -141 332 0 110 4 170 15 205 19 62
19 115 0 140 -8 10 -15 34 -15 53 0 35 41 149 66 186 8 11 14 26 14 34 0 7 8
32 19 55 32 71 71 176 71 194 1 53 97 187 164 229 53 34 162 70 233 78 86 10
197 43 387 116 27 11 56 19 65 19 9 0 30 8 46 18 32 19 138 56 195 67 19 4 46
15 60 24 42 29 151 56 220 55 36 0 95 -8 132 -18 152 -38 395 -39 538 0 30 8
72 19 92 24 47 13 222 95 313 149 83 48 106 50 135 14z"/>
<path d="M3234 4755 c-10 -8 -37 -20 -59 -26 -22 -6 -47 -17 -55 -24 -17 -14
-120 -49 -193 -65 -60 -13 -153 -75 -201 -134 -34 -41 -46 -72 -86 -226 -5
-19 -10 -57 -10 -84 l0 -48 111 -112 c62 -61 127 -135 146 -163 55 -86 63 -89
184 -57 98 25 114 26 269 22 l164 -5 28 28 c15 15 28 35 28 45 0 29 70 125
152 208 44 44 78 87 78 98 0 11 -9 33 -21 49 -49 70 -87 162 -124 305 -3 12
-125 74 -147 75 -7 0 -33 16 -58 34 -25 19 -62 44 -82 55 -20 11 -39 24 -43
30 -9 15 -58 12 -81 -5z"/>
<path d="M5255 4444 c-73 -23 -96 -26 -263 -26 -172 0 -185 -2 -203 -21 -10
-12 -23 -36 -28 -54 -12 -42 -86 -139 -168 -219 -64 -63 -73 -85 -49 -119 39
-56 88 -163 110 -236 l24 -83 62 -33 c34 -18 66 -33 71 -33 6 0 55 -31 111
-70 56 -38 107 -70 114 -70 12 0 121 47 179 76 36 19 174 64 196 64 26 0 134
77 178 126 22 26 46 65 52 88 6 23 17 61 26 86 8 25 17 74 20 110 5 63 4 66
-29 105 -19 22 -66 72 -106 110 -40 39 -93 100 -118 137 -41 62 -70 89 -91 87
-4 0 -44 -12 -88 -25z"/>
</g>
</svg>
